<mxfile host="app.diagrams.net" modified="2023-08-01T01:45:20.797Z" agent="Mozilla/5.0 (Windows NT 10.0; Win64; x64) AppleWebKit/537.36 (KHTML, like Gecko) Chrome/115.0.0.0 Safari/537.36" version="21.6.6" etag="CdYw8PQwfIA_qG0nGGtH" type="github">
  <diagram name="第 1 页" id="n3AiASltuWI-y75Rekpe">
    <mxGraphModel>
      <root>
        <mxCell id="0" />
        <mxCell id="1" parent="0" />
      </root>
    </mxGraphModel>
  </diagram>
</mxfile>
